<?xml version="1.0" standalone="no"?>
<!DOCTYPE svg PUBLIC "-//W3C//DTD SVG 1.1//EN"
  "http://www.w3.org/Graphics/SVG/1.1/DTD/svg11.dtd">
<svg width="114.26000213623047mm" height="96.84966659545896mm" viewBox="-57.86000061035156 -56.38933181762694 114.26000213623047 96.84966659545896" xmlns="http://www.w3.org/2000/svg" version="1.1">
	<title>svgOutput</title>
	<desc>made with tinkercad</desc>
<path d="M 4.802999973297119 -54.37400054931639 L 5.093136310577393 -54.324665069580064 L 15.96500015258789 -52.47600173950194 L 21.65999984741211 -51.040317535400376 L 26.94099998474121 -49.70899963378905 L 29.639667510986328 -48.83666610717772 L 32.768001556396484 -47.77908325195312 L 35.63600158691406 -46.80950927734374 L 36.823665618896484 -46.408000946044915 L 37.71699905395508 -46.06600189208984 L 37.84208297729492 -45.8740005493164 L 38.117000579833984 -45.45199966430663 L 38.126461029052734 -31.90099906921386 L 38.14873504638672 1.1102230246251565e-16 L 38.152950286865234 6.032999992370604 L 38.154998779296875 8.970000267028807 L 32.768001556396484 8.970000267028807 L 32.20600128173828 8.970000267028807 L 32.20600128173828 13.609999656677243 L 32.768001556396484 13.609999656677243 L 34.90599822998047 13.609999656677243 L 37.62310791015625 15.211274147033688 L 38.15958023071289 15.527432441711422 L 42.104000091552734 17.85199928283691 L 55.400001525878906 17.75300025939941 L 51.989341735839844 23.67773056030273 L 50.49482345581055 26.273887634277337 L 46.75639343261719 32.76800155639648 L 43.520931243896484 38.38838958740234 L 43.36399841308594 38.660999298095696 L 42.540000915527344 39.35900115966796 L 41.525333404541016 39.39899826049804 L 41.18488311767578 39.45159530639648 L 41.128334045410156 39.460334777832024 L 41.055728912353516 39.41751098632812 L 39.90299987792969 38.73766708374023 L 39.18000030517578 38.33499908447265 L 32.768001556396484 35.02714538574218 L 28.47800064086914 32.81399917602538 L 28.358964920043945 32.76800155639648 L 26.33966636657715 31.987667083740227 L 17.66033363342285 29.02300071716308 L 14.031332969665527 27.998666763305657 L 11.175999641418457 27.261999130249016 L 0 24.881160736083977 L -1.8079999685287476 24.496000289916985 L -19.267000198364258 21.72200012207031 L -36.8650016784668 20.045999526977536 L -50.130001068115234 19.47699928283691 L -54.736000061035156 19.47400093078613 L -55.51747131347656 19.245904922485348 L -55.917999267578125 19.128999710083004 L -56.68000030517578 18.30800056457519 L -56.716041564941406 18.15542411804199 L -56.86000061035156 17.545999526977536 L -56.859920501708984 17.004999160766598 L -56.85973358154297 15.749020576477047 L -56.85929489135742 12.76834392547607 L -56.85816955566406 5.151999950408935 L -56.8574104309082 1.1102230246251565e-16 L -56.857120513916016 -1.9589999914169307 L -56.85536575317383 -13.862000465393063 L -56.85432052612305 -20.923000335693356 L -56.85257339477539 -32.76800155639648 L -56.85200119018555 -36.653999328613274 L -55.59400177001953 -38.53900146484374 L -55.42599868774414 -38.66500091552734 L -55.42300033569336 -38.66400146484374 L -55.36183166503906 -38.71312713623046 L -53.42166519165039 -40.27133178710937 L -53.033668518066406 -40.6066665649414 L -52.80524444580078 -40.76640319824218 L -50.12627410888672 -42.63979339599609 L -50.098331451416016 -42.65933227539062 L -45.452999114990234 -45.82799911499023 L -40.064998626708984 -48.69699859619139 L -35.323001861572266 -50.70417404174803 L -34.45399856567383 -51.07199859619139 L -32.768001556396484 -51.6152992248535 L -28.65399932861328 -52.94100189208983 L -22.700000762939453 -54.29199981689452 L -18.649999618530273 -54.83933258056639 L -16.329999923706055 -54.95767974853514 L -15.055999755859375 -55.02266693115233 L -11.490666389465332 -55.388000488281236 L -9.65233325958252 -55.38933181762694 L -8.181634902954102 -55.37333297729491 L -5.546333312988281 -55.344665527343736 L -1.0741843476996457e-13 -54.8129425048828 L 1.0390000343322754 -54.7133331298828 L 4.802999973297119 -54.37400054931639 M 1.5880000591278076 -48.734001159667955 L 1.6030000448226929 -48.95000076293944 L 1.5889722108840942 -49.15200042724608 L 1.5880000591278076 -49.16600036621092 L 1.5460000038146973 -49.37799835205077 L 1.4769999980926514 -49.58200073242186 L 1.38100004196167 -49.776000976562486 L 1.2610000371932983 -49.95600128173827 L 1.1180000305175781 -50.118000030517564 L 0.9559999704360962 -50.26100158691405 L 0.7760000228881836 -50.381000518798814 L 0.5820000171661377 -50.47700119018553 L 0.3779999911785126 -50.54600143432616 L 0.16599999368190765 -50.58800125122069 L -9.313225510882914e-14 -50.59952926635741 L -0.05000000074505806 -50.603000640869126 L -0.26600000262260437 -50.58800125122069 L -0.4779999852180481 -50.54600143432616 L -0.6819999814033508 -50.47700119018553 L -0.8759999871253967 -50.381000518798814 L -1.055999994277954 -50.26100158691405 L -1.218000054359436 -50.118000030517564 L -1.3609999418258667 -49.95600128173827 L -1.4809999465942383 -49.776000976562486 L -1.5770000219345093 -49.58200073242186 L -1.6460000276565552 -49.37799835205077 L -1.687999963760376 -49.16600036621092 L -1.6889722347259521 -49.15200042724608 L -1.7029999494552612 -48.95000076293944 L -1.687999963760376 -48.734001159667955 L -1.6460000276565552 -48.521999359130845 L -1.5770000219345093 -48.31800079345702 L -1.4809999465942383 -48.12400054931639 L -1.3609999418258667 -47.94400024414062 L -1.218000054359436 -47.78200149536132 L -1.055999994277954 -47.63899993896484 L -0.8759999871253967 -47.51900100708007 L -0.6819999814033508 -47.42300033569335 L -0.4779999852180481 -47.35400009155273 L -0.26600000262260437 -47.312000274658196 L -0.05000000074505806 -47.29800033569335 L 0 -47.30123901367187 L 0.16599999368190765 -47.312000274658196 L 0.3779999911785126 -47.35400009155273 L 0.5820000171661377 -47.42300033569335 L 0.7760000228881836 -47.51900100708007 L 0.9559999704360962 -47.63899993896484 L 1.1180000305175781 -47.78200149536132 L 1.2610000371932983 -47.94400024414062 L 1.38100004196167 -48.12400054931639 L 1.4769999980926514 -48.31800079345702 L 1.5460000038146973 -48.521999359130845 L 1.5880000591278076 -48.734001159667955 M 2.6649999618530273 -7.939000129699705 L 2.6649999618530273 1.1102230246251565e-16 L 2.6649999618530273 3.497999906539916 L 16.660999298095703 3.497999906539916 L 16.660999298095703 1.1102230246251565e-16 L 16.660999298095703 -7.939000129699705 L 16.660999298095703 -10.473999977111815 L 2.6649999618530273 -10.473999977111815 L 2.6649999618530273 -9.197999954223631 L 2.6649999618530273 -7.939000129699705 M 18.733999252319336 -28.312000274658196 L 18.950000762939453 -28.298000335693352 L 19.166000366210938 -28.312000274658196 L 19.378000259399414 -28.354000091552727 L 19.582000732421875 -28.423000335693352 L 19.775999069213867 -28.518999099731438 L 19.95599937438965 -28.638999938964837 L 19.993385314941406 -28.67200088500976 L 20.118000030517578 -28.781999588012688 L 20.26099967956543 -28.944000244140618 L 20.381000518798828 -29.1240005493164 L 20.476999282836914 -29.318000793457024 L 20.479999542236328 -29.326869964599602 L 20.5236759185791 -29.45599937438964 L 20.54599952697754 -29.521999359130852 L 20.58799934387207 -29.73399925231933 L 20.60300064086914 -29.950000762939446 L 20.58799934387207 -30.16600036621093 L 20.54599952697754 -30.378000259399407 L 20.479999542236328 -30.573129653930657 L 20.476999282836914 -30.582000732421868 L 20.408710479736328 -30.719999313354485 L 20.381000518798828 -30.77599906921386 L 20.26099967956543 -30.95599937438964 L 20.118000030517578 -31.11800003051757 L 19.95599937438965 -31.260999679565423 L 19.775999069213867 -31.38100051879882 L 19.582000732421875 -31.476999282836907 L 19.378000259399414 -31.545999526977532 L 19.166000366210938 -31.587999343872063 L 18.950000762939453 -31.603000640869134 L 18.733999252319336 -31.587999343872063 L 18.52199935913086 -31.545999526977532 L 18.43199920654297 -31.515558242797844 L 18.31800079345703 -31.476999282836907 L 18.124000549316406 -31.38100051879882 L 17.944000244140625 -31.260999679565423 L 17.781999588012695 -31.11800003051757 L 17.638999938964844 -30.95599937438964 L 17.518999099731445 -30.77599906921386 L 17.491289138793945 -30.719999313354485 L 17.42300033569336 -30.582000732421868 L 17.354000091552734 -30.378000259399407 L 17.312000274658203 -30.16600036621093 L 17.29800033569336 -29.950000762939446 L 17.312000274658203 -29.73399925231933 L 17.354000091552734 -29.521999359130852 L 17.376323699951172 -29.45599937438964 L 17.42300033569336 -29.318000793457024 L 17.518999099731445 -29.1240005493164 L 17.638999938964844 -28.944000244140618 L 17.781999588012695 -28.781999588012688 L 17.9066162109375 -28.67200088500976 L 17.944000244140625 -28.638999938964837 L 18.124000549316406 -28.518999099731438 L 18.31800079345703 -28.423000335693352 L 18.52199935913086 -28.354000091552727 L 18.733999252319336 -28.312000274658196 M 1.4769999980926514 -10.218000411987303 L 1.4844411611557007 -10.239999771118162 L 1.5460000038146973 -10.421999931335447 L 1.5880000591278076 -10.633999824523924 L 1.6030000448226929 -10.850000381469725 L 1.5880000591278076 -11.06599998474121 L 1.5460000038146973 -11.277999877929686 L 1.4769999980926514 -11.482000350952147 L 1.38100004196167 -11.675999641418455 L 1.2610000371932983 -11.855999946594237 L 1.1180000305175781 -12.017999649047848 L 0.9559999704360962 -12.161000251770016 L 0.7760000228881836 -12.281000137329098 L 0.7618541717529297 -12.28800010681152 L 0.5820000171661377 -12.3769998550415 L 0.3779999911785126 -12.446000099182125 L 0.16599999368190765 -12.487999916076657 L 0 -12.499527931213375 L -0.05000000074505806 -12.50300025939941 L -0.26600000262260437 -12.487999916076657 L -0.4779999852180481 -12.446000099182125 L -0.6819999814033508 -12.3769998550415 L -0.8618541955947876 -12.28800010681152 L -0.8759999871253967 -12.281000137329098 L -1.055999994277954 -12.161000251770016 L -1.218000054359436 -12.017999649047848 L -1.3609999418258667 -11.855999946594237 L -1.4809999465942383 -11.675999641418455 L -1.5770000219345093 -11.482000350952147 L -1.6460000276565552 -11.277999877929686 L -1.687999963760376 -11.06599998474121 L -1.7029999494552612 -10.850000381469725 L -1.687999963760376 -10.633999824523924 L -1.6460000276565552 -10.421999931335447 L -1.5844411849975586 -10.239999771118162 L -1.5770000219345093 -10.218000411987303 L -1.4809999465942383 -10.024000167846678 L -1.3609999418258667 -9.843999862670897 L -1.218000054359436 -9.682000160217283 L -1.055999994277954 -9.538999557495115 L -0.8759999871253967 -9.418999671936033 L -0.6819999814033508 -9.322999954223631 L -0.4779999852180481 -9.253999710083006 L -0.26600000262260437 -9.211999893188475 L -0.05000000074505806 -9.197999954223631 L 1.663076008287176e-14 -9.20124053955078 L 0.16599999368190765 -9.211999893188475 L 0.3779999911785126 -9.253999710083006 L 0.5820000171661377 -9.322999954223631 L 0.7760000228881836 -9.418999671936033 L 0.9559999704360962 -9.538999557495115 L 1.1180000305175781 -9.682000160217283 L 1.2610000371932983 -9.843999862670897 L 1.38100004196167 -10.024000167846678 L 1.4769999980926514 -10.218000411987303 M 24.06137466430664 27.171850204467766 L 26.95635986328125 16.38400077819824 L 27.503000259399414 14.347000122070309 L 13.984000205993652 10.732000350952147 L 12.467140197753906 16.38400077819824 L 11.513071060180664 19.93897438049316 L 10.362000465393066 24.228000640869134 L 23.881000518798828 27.84399986267089 L 24.06137466430664 27.171850204467766 M -16.329999923706055 -27.83499908447265 L -16.329999923706055 -20.045999526977536 L -2.3329999446868896 -20.045999526977536 L -2.3329999446868896 -32.76800155639648 L -2.3329999446868896 -34.01900100708007 L -16.329999923706055 -34.01900100708007 L -16.329999923706055 -32.89899826049804 L -16.329999923706055 -32.76800155639648 L -16.329999923706055 -28.5979995727539 L -16.329999923706055 -27.83499908447265 M -19.365999221801758 -28.611999511718743 L -19.149999618530273 -28.5979995727539 L -18.93400001525879 -28.611999511718743 L -18.722000122070312 -28.653999328613274 L -18.66878318786621 -28.67200088500976 L -18.51799964904785 -28.7229995727539 L -18.43199920654297 -28.76555633544921 L -18.323999404907227 -28.819000244140618 L -18.143999099731445 -28.938999176025384 L -17.98200035095215 -29.082000732421868 L -17.839000701904297 -29.243999481201165 L -17.7189998626709 -29.423999786376946 L -17.62299919128418 -29.61800003051757 L -17.554000854492188 -29.822000503540032 L -17.511999130249023 -30.03400039672851 L -17.49799919128418 -30.249999999999993 L -17.511999130249023 -30.465999603271477 L -17.554000854492188 -30.677999496459954 L -17.568206787109375 -30.719999313354485 L -17.62299919128418 -30.881999969482415 L -17.7189998626709 -31.07600021362304 L -17.839000701904297 -31.25600051879882 L -17.98200035095215 -31.417999267578118 L -18.143999099731445 -31.561000823974602 L -18.323999404907227 -31.680999755859368 L -18.43199920654297 -31.734443664550774 L -18.51799964904785 -31.777000427246087 L -18.722000122070312 -31.84600067138671 L -18.93400001525879 -31.888000488281243 L -19.149999618530273 -31.90299987792968 L -19.365999221801758 -31.888000488281243 L -19.577999114990234 -31.84600067138671 L -19.781999588012695 -31.777000427246087 L -19.97599983215332 -31.680999755859368 L -20.1560001373291 -31.561000823974602 L -20.31800079345703 -31.417999267578118 L -20.461000442504883 -31.25600051879882 L -20.479999542236328 -31.227500915527337 L -20.58099937438965 -31.07600021362304 L -20.677000045776367 -30.881999969482415 L -20.746000289916992 -30.677999496459954 L -20.788000106811523 -30.465999603271477 L -20.80299949645996 -30.249999999999993 L -20.788000106811523 -30.03400039672851 L -20.746000289916992 -29.822000503540032 L -20.677000045776367 -29.61800003051757 L -20.58099937438965 -29.423999786376946 L -20.479999542236328 -29.27249908447265 L -20.461000442504883 -29.243999481201165 L -20.31800079345703 -29.082000732421868 L -20.1560001373291 -28.938999176025384 L -19.97599983215332 -28.819000244140618 L -19.781999588012695 -28.7229995727539 L -19.63121795654297 -28.67200088500976 L -19.577999114990234 -28.653999328613274 L -19.365999221801758 -28.611999511718743 M -54.31800079345703 -34.895000457763665 L -54.31800079345703 -32.76800155639648 L -54.31800079345703 -20.923000335693356 L -40.323001861572266 -20.923000335693356 L -40.323001861572266 -32.76800155639648 L -40.323001861572266 -33.630664825439446 L -40.323001861572266 -34.895000457763665 L -44.11600112915039 -34.895000457763665 L -54.31800079345703 -34.895000457763665 M -35.323001861572266 -13.862000465393063 L -35.316001892089844 -13.862000465393063 L -32.768001556396484 -13.862000465393063 L -21.327999114990234 -13.862000465393063 L -21.327999114990234 -20.045999526977536 L -21.327999114990234 -27.83499908447265 L -32.768001556396484 -27.83499908447265 L -35.316001892089844 -27.83499908447265 L -35.323001861572266 -27.83499908447265 L -35.323001861572266 -20.923000335693356 L -35.323001861572266 -15.930999755859371 L -35.323001861572266 -13.862000465393063 M -35.316001892089844 1.1102230246251565e-16 L -35.316001892089844 3.0309998989105216 L -35.316001892089844 5.151999950408935 L -21.31999969482422 5.151999950408935 L -21.31999969482422 1.1102230246251565e-16 L -21.31999969482422 -1.0650000572204585 L -21.31999969482422 -8.82199954986572 L -32.768001556396484 -8.82199954986572 L -35.316001892089844 -8.82199954986572 L -35.316001892089844 -1.9589999914169307 L -35.316001892089844 1.1102230246251565e-16 M -40.323001861572266 17.004999160766598 L -40.323001861572266 16.29109382629394 L -40.323001861572266 5.151999950408935 L -40.323001861572266 3.0309998989105216 L -54.31800079345703 3.0309998989105216 L -54.31800079345703 5.151999950408935 L -54.31800079345703 13.309720039367672 L -54.31800079345703 16.15286827087402 L -54.31800079345703 17.004999160766598 L -48.95485305786133 17.004999160766598 L -40.323001861572266 17.004999160766598 M 32.768001556396484 -26.920999526977532 L 21.638999938964844 -26.920999526977532 L 21.638999938964844 -15.482999801635739 L 21.638999938964844 -12.94799995422363 L 32.768001556396484 -12.94799995422363 L 35.63600158691406 -12.94799995422363 L 35.63600158691406 -26.920999526977532 L 32.768001556396484 -26.920999526977532 M 35.63600158691406 -7.939000129699705 L 32.768001556396484 -7.939000129699705 L 21.638999938964844 -7.939000129699705 L 21.638999938964844 1.1102230246251565e-16 L 21.638999938964844 3.497999906539916 L 21.638999938964844 6.032999992370604 L 32.768001556396484 6.032999992370604 L 35.63600158691406 6.032999992370604 L 35.63600158691406 1.1102230246251565e-16 L 35.63600158691406 -7.939000129699705 M 35.65599822998047 -31.90099906921386 L 35.65599822998047 -45.8740005493164 L 35.63600158691406 -45.8740005493164 L 32.768001556396484 -45.8740005493164 L 21.65999984741211 -45.8740005493164 L 21.65999984741211 -34.46400070190429 L 21.65999984741211 -32.76800155639648 L 21.65999984741211 -31.90099906921386 L 32.768001556396484 -31.90099906921386 L 35.63600158691406 -31.90099906921386 L 35.65599822998047 -31.90099906921386 M 16.655000686645508 -48.43700027465819 L 2.6600000858306885 -48.43700027465819 L 2.6600000858306885 -47.29800033569335 L 2.6600000858306885 -34.46400070190429 L 16.655000686645508 -34.46400070190429 L 16.655000686645508 -48.43700027465819 M 16.660999298095703 -15.482999801635739 L 16.660999298095703 -29.45599937438964 L 2.6649999618530273 -29.45599937438964 L 2.6649999618530273 -15.482999801635739 L 16.660999298095703 -15.482999801635739 M 48.165000915527344 24.930999755859368 L 38.1621208190918 19.165439605712887 L 36.042999267578125 17.94400024414062 L 32.768001556396484 23.60796737670898 L 29.04599952697754 30.045000076293938 L 32.768001556396484 32.19037246704101 L 33.7701301574707 32.76800155639648 L 41.16600036621094 37.03099822998046 L 43.6318473815918 32.76800155639648 L 48.165000915527344 24.930999755859368 M -2.3329999446868896 -39.02700042724609 L -2.3329999446868896 -52.999999999999986 L -16.329999923706055 -52.999999999999986 L -16.329999923706055 -46.87200164794921 L -16.329999923706055 -39.02700042724609 L -2.3329999446868896 -39.02700042724609 M -21.327999114990234 -46.87200164794921 L -32.768001556396484 -46.87200164794921 L -35.323001861572266 -46.87200164794921 L -35.323001861572266 -34.895000457763665 L -35.323001861572266 -32.89899826049804 L -32.768001556396484 -32.89899826049804 L -21.327999114990234 -32.89899826049804 L -21.327999114990234 -39.02700042724609 L -21.327999114990234 -46.87200164794921 M -2.3329999446868896 -8.82199954986572 L -2.3329999446868896 -15.03699970245361 L -16.329999923706055 -15.03699970245361 L -16.329999923706055 -13.862000465393063 L -16.329999923706055 -8.82199954986572 L -16.329999923706055 -1.0650000572204585 L -2.3329999446868896 -1.0650000572204585 L -2.3329999446868896 -8.82199954986572 M -40.323001861572266 -15.930999755859371 L -54.31800079345703 -15.930999755859371 L -54.31800079345703 -13.862000465393063 L -54.31800079345703 -1.9589999914169307 L -40.323001861572266 -1.9589999914169307 L -40.323001861572266 -13.862000465393063 L -40.323001861572266 -15.930999755859371 z" fill="none" stroke="rgb(255,0,0)" stroke-width="0.001mm" />
</svg>